<svg width="20px" height="20px" viewBox="0 0 20 20" version="1.1" xmlns="http://www.w3.org/2000/svg" xmlns:xlink="http://www.w3.org/1999/xlink">
    <g id="Desktop" stroke="none" stroke-width="1" fill="none" fill-rule="evenodd">
        <g id="D1---Detail---viewport-1" transform="translate(-1302.000000, -584.000000)" fill="currentColor" fill-rule="nonzero">
            <g id="image" transform="translate(702.750000, 155.666667)">
                <g id="left-arrow" transform="translate(519.250000, 428.333333)">
                    <g id="expand" transform="translate(80.000000, 0.000000)">
                        <path d="M19.1666667,0 L14.5833333,0 C14.1233333,0 13.75,0.373333333 13.75,0.833333333 C13.75,1.29333333 14.1233333,1.66666667 14.5833333,1.66666667 L17.155,1.66666667 L11.0775,7.74416667 C10.7520833,8.06958333 10.7520833,8.59708333 11.0775,8.9225 C11.2404167,9.08541667 11.4533333,9.16666667 11.6666667,9.16666667 C11.88,9.16666667 12.0929167,9.08541667 12.2558333,8.9225 L18.3333333,2.845 L18.3333333,5.41666667 C18.3333333,5.87666667 18.7066667,6.25 19.1666667,6.25 C19.6266667,6.25 20,5.87666667 20,5.41666667 L20,0.833333333 C20,0.373333333 19.6266667,0 19.1666667,0 Z" id="Path"></path>
                        <path d="M19.1666667,13.75 C18.7066667,13.75 18.3333333,14.1233333 18.3333333,14.5833333 L18.3333333,17.155 L12.2558333,11.0775 C11.9304167,10.7520833 11.4029167,10.7520833 11.0775,11.0775 C10.7520833,11.4029167 10.7520833,11.9304167 11.0775,12.2558333 L17.155,18.3333333 L14.5833333,18.3333333 C14.1233333,18.3333333 13.75,18.7066667 13.75,19.1666667 C13.75,19.6266667 14.1233333,20 14.5833333,20 L19.1666667,20 C19.6266667,20 20,19.6266667 20,19.1666667 L20,14.5833333 C20,14.1233333 19.6266667,13.75 19.1666667,13.75 Z" id="Path"></path>
                        <path d="M2.845,1.66666667 L5.41666667,1.66666667 C5.87666667,1.66666667 6.25,1.29333333 6.25,0.833333333 C6.25,0.373333333 5.87666667,1.48029737e-15 5.41666667,1.48029737e-15 L0.833333333,1.48029737e-15 C0.373333333,1.48029737e-15 1.48029737e-15,0.373333333 1.48029737e-15,0.833333333 L1.48029737e-15,5.41666667 C1.48029737e-15,5.87666667 0.373333333,6.25 0.833333333,6.25 C1.29333333,6.25 1.66666667,5.87666667 1.66666667,5.41666667 L1.66666667,2.845 L7.74416667,8.9225 C7.90708333,9.08541667 8.12,9.16666667 8.33333333,9.16666667 C8.54666667,9.16666667 8.75958333,9.08541667 8.9225,8.9225 C9.24791667,8.59708333 9.24791667,8.06958333 8.9225,7.74416667 L2.845,1.66666667 Z" id="Path"></path>
                        <path d="M7.74416667,11.0775 L1.66666667,17.155 L1.66666667,14.5833333 C1.66666667,14.1233333 1.29333333,13.75 0.833333333,13.75 C0.373333333,13.75 7.40148683e-16,14.1233333 7.40148683e-16,14.5833333 L7.40148683e-16,19.1666667 C7.40148683e-16,19.6266667 0.373333333,20 0.833333333,20 L5.41666667,20 C5.87666667,20 6.25,19.6266667 6.25,19.1666667 C6.25,18.7066667 5.87666667,18.3333333 5.41666667,18.3333333 L2.845,18.3333333 L8.9225,12.2558333 C9.24791667,11.9304167 9.24791667,11.4029167 8.9225,11.0775 C8.59708333,10.7520833 8.06958333,10.7520833 7.74416667,11.0775 L7.74416667,11.0775 Z" id="Path"></path>
                    </g>
                </g>
            </g>
        </g>
    </g>
</svg>
