<svg width="160" height="37" viewBox="0 0 160 37" fill="none" xmlns="http://www.w3.org/2000/svg">
<g clip-path="url(#clip0_1785_1101)">
<path d="M34.8913 7.76042H49.7812V12.2635H34.8913V15.1031H50.8865V19.5816H29.1694V2.6717C29.1694 1.44627 30.1798 0.452148 31.4252 0.452148H50.9015V4.93554H34.8913V7.76534V7.76042Z" fill="#005FB6"/>
<path d="M60.0847 8.61674H73.8092V13.0952H60.0847V19.5816H54.3628V2.6717C54.3628 1.44627 55.3731 0.452148 56.6185 0.452148H74.9445V4.95522H60.0847V8.61674Z" fill="#005FB6"/>
<path fill-rule="evenodd" clip-rule="evenodd" d="M93.8809 13.9366C95.1313 13.9366 96.1417 14.9307 96.1417 16.1561V19.5765H101.864V15.8165C101.864 13.4592 99.9129 11.5398 97.5221 11.5398C99.9129 11.5398 101.854 9.63526 101.854 7.27792V4.71387C101.854 2.35652 99.9229 0.447021 97.5271 0.447021H77.8057V19.5765H83.5275V13.9366H93.8759H93.8809ZM96.0966 7.9866C96.0966 8.79371 95.4364 9.44333 94.6212 9.44333H83.5275V4.94518H94.6212C95.4364 4.94518 96.0966 5.5948 96.0966 6.39699V7.9866Z" fill="#005FB6"/>
<path fill-rule="evenodd" clip-rule="evenodd" d="M117.073 4.43356L112.842 12.2635H121.81L117.579 4.43356C117.528 4.34497 117.438 4.28099 117.323 4.28099C117.208 4.28099 117.118 4.34497 117.068 4.43356H117.073ZM121.905 0.452148L132.213 19.5865H125.796L124.206 16.7272H110.446L108.856 19.5865H102.374L112.742 0.452148H121.905Z" fill="#005FB6"/>
<path d="M5.72187 13.6464C5.72187 13.4594 5.72187 6.39719 5.73187 6.39719C5.73187 5.59501 6.38709 4.94538 7.19735 4.94538H25.7434V0.452148H5.22671C2.33576 0.461991 0.0100033 2.75536 0 5.59008V14.4388C0.00500163 17.2784 2.35077 19.5767 5.23671 19.5865H20.5167C23.4077 19.5816 25.7484 17.2735 25.7484 14.4289C25.7384 14.4289 25.7484 7.78503 25.7484 7.78503H12.0289V12.2635H20.0265V14.3649C20.0265 14.7636 19.6964 15.0884 19.2913 15.0884H7.19735C6.38209 15.0884 5.71187 14.4437 5.72187 13.6415V13.6464Z" fill="#005FB6"/>
<path d="M153.93 14.8029C153.93 14.9604 153.8 15.0884 153.64 15.0884C153.54 15.0884 153.455 15.0392 153.415 14.9653L143.302 1.41182C142.897 0.831096 142.216 0.452148 141.446 0.452148H135.404C133.954 0.452148 132.783 1.60868 132.783 3.03096V19.5816H138.505V5.23082C138.505 5.07334 138.635 4.94538 138.795 4.94538C138.89 4.94538 138.975 4.98967 139.025 5.05857L149.104 18.558C149.504 19.1682 150.199 19.5767 151.004 19.5816H157.041C158.492 19.5816 159.662 18.4251 159.662 17.0028V0.452148H153.94V14.8029H153.93Z" fill="#005FB6"/>
<path d="M57.8441 32.2985C58.3643 32.7562 58.6244 33.3074 58.6244 33.957C58.6244 34.267 58.5744 34.5623 58.4743 34.8428C58.3743 35.1234 58.2343 35.3694 58.0442 35.5761C57.8591 35.7878 57.6291 35.9551 57.359 36.0781C57.0889 36.2011 56.7838 36.2651 56.4437 36.2651H54.483C54.358 36.2651 54.293 36.2011 54.293 36.0781V28.3466C54.293 28.2285 54.358 28.1694 54.483 28.1694H56.3086C56.6337 28.1694 56.9288 28.2285 57.1989 28.3466C57.469 28.4647 57.6991 28.6222 57.8941 28.8289C58.0892 29.0356 58.2393 29.2718 58.3443 29.5474C58.4493 29.823 58.5043 30.1085 58.5043 30.4087C58.5043 30.7679 58.4393 31.078 58.3143 31.3437C58.1892 31.6095 58.0242 31.8457 57.8291 32.0573C57.7991 32.0869 57.7841 32.1262 57.7841 32.1754C57.7841 32.2296 57.8041 32.2739 57.8441 32.3034V32.2985ZM55.2783 29.1734C55.2783 29.2029 55.2733 29.2521 55.2733 29.3112V31.6784C55.2733 31.6784 55.3033 31.7128 55.3683 31.7128H56.4487C56.6237 31.7128 56.7688 31.6735 56.8938 31.5898C57.0139 31.5061 57.1189 31.4028 57.1939 31.2748C57.2739 31.1469 57.334 31.0091 57.369 30.8565C57.409 30.704 57.429 30.5563 57.429 30.4087C57.429 30.261 57.404 30.0986 57.354 29.9461C57.304 29.7935 57.2289 29.6557 57.1289 29.5327C57.0289 29.4145 56.9088 29.3161 56.7738 29.2374C56.6337 29.1586 56.4837 29.1193 56.3186 29.1193H55.3833C55.3183 29.1193 55.2883 29.134 55.2833 29.1636L55.2783 29.1734ZM55.3683 32.6233C55.3033 32.6233 55.2733 32.6381 55.2733 32.6676V35.1184C55.2733 35.1824 55.2733 35.2267 55.2783 35.2562C55.2783 35.2858 55.3133 35.3005 55.3783 35.3005H56.3987C56.5737 35.3005 56.7288 35.2612 56.8688 35.1824C57.0089 35.1037 57.1239 35.0003 57.2239 34.8724C57.324 34.7444 57.399 34.6017 57.449 34.4442C57.499 34.2867 57.524 34.1292 57.524 33.9668C57.524 33.8044 57.499 33.6519 57.449 33.4895C57.399 33.3271 57.324 33.1794 57.2239 33.0515C57.1239 32.9235 57.0089 32.8202 56.8688 32.7365C56.7288 32.6528 56.5737 32.6135 56.3987 32.6135H55.3683V32.6233Z" fill="#6D747D"/>
<path d="M64.5413 28.3468V28.8734C64.5413 28.9964 64.4762 29.0604 64.3512 29.0604H61.9454C61.8254 29.0604 61.7654 29.1195 61.7654 29.2376V31.6491C61.7654 31.718 61.7954 31.7524 61.8604 31.7524H63.5659C63.691 31.7524 63.751 31.8164 63.746 31.9394V32.4759C63.746 32.594 63.686 32.653 63.5659 32.653H61.9304C61.8104 32.653 61.7504 32.7121 61.7504 32.8302L61.7604 35.2811C61.7604 35.3992 61.8204 35.4533 61.9404 35.4533H64.3462C64.4712 35.4533 64.5363 35.5124 64.5363 35.6305V36.0832C64.5363 36.2063 64.4712 36.2703 64.3462 36.2703H60.9801C60.8551 36.2703 60.79 36.2063 60.79 36.0832V28.3517C60.79 28.2336 60.8551 28.1746 60.9801 28.1746H64.3462C64.4712 28.1746 64.5363 28.2336 64.5363 28.3517L64.5413 28.3468Z" fill="#6D747D"/>
<path d="M68.7728 36.2653H68.1626C68.0426 36.2653 67.9826 36.2014 67.9826 36.0783V32.8499C67.9826 32.8499 67.9726 32.8007 67.9475 32.7465L66.0519 28.4551C65.9719 28.2681 66.0219 28.1746 66.207 28.1746H66.8722C66.9522 28.1746 67.0022 28.2041 67.0272 28.2681L68.3377 31.275C68.3627 31.339 68.4127 31.3685 68.4927 31.3685C68.5627 31.3685 68.6178 31.339 68.6478 31.275L69.9182 28.2681C69.9482 28.2041 70.0032 28.1746 70.0832 28.1746H70.7335C70.8135 28.1746 70.8635 28.2041 70.8885 28.2681C70.9135 28.332 70.9085 28.3911 70.8785 28.4551L68.9929 32.7465C68.9679 32.7908 68.9579 32.8302 68.9579 32.8499V36.0783C68.9579 36.2014 68.8979 36.2653 68.7778 36.2653H68.7728Z" fill="#6D747D"/>
<path d="M77.0202 34.5034C77.0202 34.8085 76.9602 35.0792 76.8351 35.3203C76.7101 35.5615 76.55 35.7633 76.345 35.9306C76.1399 36.0979 75.9048 36.2259 75.6397 36.3145C75.3746 36.403 75.0946 36.4473 74.8045 36.4473C74.5144 36.4473 74.2443 36.403 73.9742 36.3095C73.7041 36.216 73.469 36.0881 73.264 35.9207C73.0589 35.7534 72.8938 35.5516 72.7638 35.3105C72.6387 35.0693 72.5737 34.8036 72.5737 34.5083V30.0643C72.5737 29.769 72.6337 29.4934 72.7588 29.2424C72.8838 28.9914 73.0489 28.77 73.259 28.578C73.469 28.3861 73.7091 28.2385 73.9742 28.1302C74.2443 28.0219 74.5194 27.9678 74.8045 27.9678C75.1046 27.9678 75.3846 28.0219 75.6497 28.1302C75.9148 28.2385 76.1499 28.3861 76.355 28.5731C76.56 28.7601 76.7201 28.9816 76.8401 29.2375C76.9602 29.4934 77.0202 29.769 77.0202 30.0643V34.5083V34.5034ZM75.9398 29.6164C75.8698 29.4786 75.7748 29.3556 75.6547 29.2473C75.5347 29.1391 75.4047 29.0603 75.2546 29.0013C75.1046 28.9422 74.9495 28.9127 74.7945 28.9127C74.6394 28.9127 74.4844 28.9422 74.3343 29.0013C74.1843 29.0603 74.0492 29.1391 73.9342 29.2473C73.8141 29.3507 73.7241 29.4737 73.6491 29.6164C73.5791 29.7542 73.544 29.9068 73.544 30.0692V34.5034C73.544 34.6658 73.5791 34.8085 73.6541 34.9365C73.7291 35.0595 73.8241 35.1678 73.9442 35.2564C74.0642 35.3449 74.1943 35.4138 74.3443 35.4532C74.4944 35.4926 74.6444 35.5172 74.7945 35.5172C74.9445 35.5172 75.0946 35.4975 75.2446 35.4532C75.3947 35.4089 75.5297 35.3449 75.6447 35.2613C75.7648 35.1776 75.8598 35.0693 75.9348 34.9414C76.0099 34.8134 76.0449 34.6658 76.0449 34.5034V30.0692C76.0449 29.9068 76.0099 29.7542 75.9398 29.6164Z" fill="#6D747D"/>
<path d="M80.7066 31.0042C80.6816 30.9403 80.6315 30.9107 80.5515 30.9107C80.4315 30.9107 80.3715 30.9747 80.3715 31.0977V36.0782C80.3715 36.2012 80.3114 36.2652 80.1914 36.2652H79.6212C79.4962 36.2652 79.4312 36.2012 79.4312 36.0782V28.3467C79.4312 28.2286 79.4912 28.1695 79.6112 28.1695H80.0964C80.1764 28.1695 80.2314 28.2089 80.2614 28.2876L82.7722 33.1647C82.7973 33.209 82.8423 33.2336 82.9123 33.2336C83.0323 33.2336 83.0924 33.1746 83.0924 33.0565V28.3467C83.0924 28.2236 83.1574 28.1597 83.2824 28.1597H83.8376C83.9626 28.1597 84.0277 28.2236 84.0277 28.3467V36.088C84.0277 36.2062 83.9626 36.2652 83.8376 36.2652H83.3624C83.2974 36.2652 83.2424 36.2258 83.1974 36.1471L80.6966 31.0042H80.7066Z" fill="#6D747D"/>
<path d="M86.5737 36.0781V28.3466C86.5737 28.2285 86.6388 28.1694 86.7638 28.1694H88.6244C88.9945 28.1694 89.3346 28.2334 89.6447 28.3663C89.9548 28.4992 90.2149 28.6763 90.435 28.9027C90.6501 29.1291 90.8201 29.3949 90.9402 29.7049C91.0602 30.015 91.1202 30.3545 91.1202 30.7187V33.9373C91.1202 34.3015 91.0602 34.6312 90.9352 34.9167C90.8101 35.2021 90.6401 35.4482 90.42 35.645C90.1999 35.8419 89.9348 35.9945 89.6297 36.0978C89.3246 36.2011 88.9895 36.2553 88.6294 36.2553H86.7688C86.6438 36.2553 86.5787 36.1913 86.5787 36.0683L86.5737 36.0781ZM87.7241 35.399H88.5044C88.9545 35.399 89.3296 35.2612 89.6247 34.9905C89.9198 34.7198 90.0699 34.3556 90.0699 33.9078V30.7138C90.0699 30.4973 90.0399 30.2856 89.9748 30.0839C89.9098 29.8821 89.8148 29.7049 89.6898 29.5523C89.5647 29.3998 89.3997 29.2767 89.2046 29.1832C89.0095 29.0897 88.7694 29.0405 88.4944 29.0405H87.7241C87.6041 29.0405 87.544 29.1045 87.544 29.2275V35.2119C87.544 35.335 87.6041 35.399 87.7241 35.399Z" fill="#6D747D"/>
<path d="M98.7677 36.2651H98.1525C98.0174 36.2651 97.9524 36.2011 97.9524 36.0781L97.9624 29.1389C97.9624 28.9913 97.9024 28.9175 97.7823 28.9175H96.0768C95.9517 28.9175 95.8867 28.8535 95.8867 28.7305V28.3466C95.8867 28.2285 95.9517 28.1694 96.0768 28.1694H100.818C100.943 28.1694 101.008 28.2285 101.008 28.3466V28.7305C101.008 28.8535 100.943 28.9175 100.818 28.9175H99.1328C99.0127 28.9175 98.9527 28.9765 98.9527 29.0947V36.0781C98.9527 36.2011 98.8877 36.2651 98.7627 36.2651H98.7677Z" fill="#6D747D"/>
<path d="M106.58 28.3468V28.8734C106.58 28.9964 106.515 29.0604 106.39 29.0604H103.984C103.864 29.0604 103.804 29.1195 103.804 29.2376V31.6491C103.804 31.718 103.834 31.7524 103.899 31.7524H105.605C105.73 31.7524 105.79 31.8164 105.785 31.9394V32.4759C105.785 32.594 105.725 32.653 105.605 32.653H103.969C103.849 32.653 103.789 32.7121 103.789 32.8302L103.799 35.2811C103.799 35.3992 103.859 35.4533 103.979 35.4533H106.385C106.51 35.4533 106.575 35.5124 106.575 35.6305V36.0832C106.575 36.2063 106.51 36.2703 106.385 36.2703H103.019C102.894 36.2703 102.829 36.2063 102.829 36.0832V28.3517C102.829 28.2336 102.894 28.1746 103.019 28.1746H106.385C106.51 28.1746 106.575 28.2336 106.575 28.3517L106.58 28.3468Z" fill="#6D747D"/>
<path d="M113.062 30.0495C113.062 30.1529 113.002 30.2021 112.882 30.2021H112.207C112.087 30.2021 112.027 30.1529 112.027 30.0495C112.027 29.8625 111.992 29.7001 111.922 29.5574C111.852 29.4196 111.757 29.2965 111.642 29.203C111.526 29.1046 111.396 29.0357 111.246 28.9865C111.096 28.9373 110.936 28.9176 110.771 28.9176C110.606 28.9176 110.461 28.9471 110.311 29.0062C110.161 29.0652 110.026 29.1489 109.906 29.2523C109.786 29.3556 109.691 29.4786 109.621 29.6115C109.551 29.7444 109.516 29.892 109.516 30.0495V34.4345C109.516 34.592 109.551 34.7347 109.621 34.8676C109.691 35.0004 109.786 35.1136 109.906 35.2121C110.026 35.3105 110.161 35.3843 110.311 35.4384C110.461 35.4926 110.616 35.5221 110.771 35.5221C111.176 35.5221 111.481 35.4138 111.702 35.2022C111.922 34.9906 112.027 34.7199 112.027 34.3902C112.027 34.2868 112.087 34.2376 112.207 34.2376H112.882C113.002 34.2376 113.062 34.2868 113.062 34.3902C113.062 34.6953 113.012 34.9709 112.912 35.2219C112.812 35.4729 112.667 35.6944 112.472 35.8765C112.277 36.0585 112.037 36.2013 111.757 36.3046C111.471 36.408 111.146 36.4572 110.771 36.4572C110.461 36.4572 110.171 36.4129 109.901 36.3243C109.631 36.2357 109.391 36.1028 109.186 35.9257C108.981 35.7485 108.821 35.5369 108.701 35.2908C108.581 35.0398 108.521 34.7593 108.521 34.4394V30.0544C108.521 29.7296 108.586 29.4343 108.711 29.1784C108.836 28.9225 109.006 28.7011 109.216 28.519C109.426 28.3369 109.666 28.1991 109.941 28.1056C110.216 28.0121 110.491 27.9678 110.776 27.9678C111.086 27.9678 111.376 28.0121 111.652 28.0957C111.927 28.1794 112.172 28.3123 112.382 28.4845C112.592 28.6617 112.757 28.8782 112.882 29.1391C113.002 29.3999 113.067 29.705 113.067 30.0544L113.062 30.0495Z" fill="#6D747D"/>
<path d="M115.978 36.2651H115.373C115.248 36.2651 115.183 36.2011 115.183 36.0781V28.3466C115.183 28.2285 115.248 28.1694 115.373 28.1694H115.963C116.083 28.1694 116.143 28.2285 116.143 28.3466V31.6587C116.143 31.7768 116.203 31.8359 116.318 31.8359H118.584C118.709 31.8359 118.774 31.7768 118.774 31.6587V28.3466C118.774 28.2285 118.834 28.1694 118.954 28.1694H119.564C119.684 28.1694 119.744 28.2285 119.744 28.3466V36.0781C119.744 36.2011 119.684 36.2651 119.564 36.2651H118.964C118.834 36.2651 118.774 36.2011 118.774 36.0781V32.8694C118.774 32.7463 118.714 32.6824 118.599 32.6824H116.333C116.213 32.6824 116.158 32.7463 116.158 32.8694V36.0781C116.158 36.2011 116.098 36.2651 115.978 36.2651Z" fill="#6D747D"/>
<path d="M123.551 31.0042C123.526 30.9403 123.476 30.9107 123.396 30.9107C123.276 30.9107 123.216 30.9747 123.216 31.0977V36.0782C123.216 36.2012 123.156 36.2652 123.036 36.2652H122.465C122.34 36.2652 122.275 36.2012 122.275 36.0782V28.3467C122.275 28.2286 122.335 28.1695 122.455 28.1695H122.941C123.021 28.1695 123.076 28.2089 123.106 28.2876L125.616 33.1647C125.641 33.209 125.687 33.2336 125.757 33.2336C125.877 33.2336 125.937 33.1746 125.937 33.0565V28.3467C125.937 28.2236 126.002 28.1597 126.127 28.1597H126.682C126.807 28.1597 126.872 28.2236 126.872 28.3467V36.088C126.872 36.2062 126.807 36.2652 126.682 36.2652H126.207C126.142 36.2652 126.087 36.2258 126.042 36.1471L123.541 31.0042H123.551Z" fill="#6D747D"/>
<path d="M133.744 34.5034C133.744 34.8085 133.684 35.0792 133.559 35.3203C133.434 35.5615 133.274 35.7633 133.069 35.9306C132.864 36.0979 132.628 36.2259 132.363 36.3145C132.098 36.403 131.818 36.4473 131.528 36.4473C131.238 36.4473 130.968 36.403 130.698 36.3095C130.428 36.216 130.193 36.0881 129.988 35.9207C129.783 35.7534 129.617 35.5516 129.487 35.3105C129.362 35.0693 129.297 34.8036 129.297 34.5083V30.0643C129.297 29.769 129.357 29.4934 129.482 29.2424C129.607 28.9914 129.773 28.77 129.983 28.578C130.193 28.3861 130.433 28.2385 130.698 28.1302C130.968 28.0219 131.243 27.9678 131.528 27.9678C131.828 27.9678 132.108 28.0219 132.373 28.1302C132.638 28.2385 132.874 28.3861 133.079 28.5731C133.284 28.7601 133.444 28.9816 133.564 29.2375C133.684 29.4934 133.744 29.769 133.744 30.0643V34.5083V34.5034ZM132.663 29.6164C132.593 29.4786 132.498 29.3556 132.378 29.2473C132.258 29.144 132.128 29.0603 131.978 29.0013C131.828 28.9422 131.673 28.9127 131.518 28.9127C131.363 28.9127 131.208 28.9422 131.058 29.0013C130.908 29.0603 130.773 29.1391 130.658 29.2473C130.538 29.3507 130.448 29.4737 130.373 29.6164C130.303 29.7542 130.268 29.9068 130.268 30.0692V34.5034C130.268 34.6658 130.303 34.8085 130.378 34.9365C130.453 35.0595 130.548 35.1678 130.668 35.2564C130.788 35.3449 130.918 35.4138 131.068 35.4532C131.218 35.4926 131.368 35.5172 131.518 35.5172C131.668 35.5172 131.818 35.4975 131.968 35.4532C132.118 35.4089 132.253 35.3449 132.368 35.2613C132.488 35.1776 132.583 35.0693 132.658 34.9414C132.733 34.8134 132.768 34.6658 132.768 34.5034V30.0692C132.768 29.9068 132.733 29.7542 132.663 29.6164Z" fill="#6D747D"/>
<path d="M140.216 35.6106V36.0781C140.216 36.2011 140.151 36.2651 140.026 36.2651H136.35C136.225 36.2651 136.16 36.2011 136.16 36.0781V28.3466C136.16 28.2285 136.225 28.1694 136.35 28.1694H136.94C137.065 28.1694 137.13 28.2285 137.13 28.3466V35.2513C137.13 35.3694 137.19 35.4285 137.31 35.4285H140.026C140.151 35.4285 140.216 35.4925 140.216 35.6155V35.6106Z" fill="#6D747D"/>
<path d="M146.363 34.5034C146.363 34.8085 146.303 35.0792 146.178 35.3203C146.053 35.5615 145.893 35.7633 145.688 35.9306C145.483 36.0979 145.248 36.2259 144.983 36.3145C144.717 36.403 144.437 36.4473 144.147 36.4473C143.857 36.4473 143.587 36.403 143.317 36.3095C143.047 36.216 142.812 36.0881 142.607 35.9207C142.402 35.7534 142.237 35.5516 142.107 35.3105C141.982 35.0693 141.917 34.8036 141.917 34.5083V30.0643C141.917 29.769 141.977 29.4934 142.102 29.2424C142.227 28.9914 142.392 28.77 142.602 28.578C142.812 28.3861 143.052 28.2385 143.317 28.1302C143.587 28.0219 143.862 27.9678 144.147 27.9678C144.447 27.9678 144.732 28.0219 144.993 28.1302C145.258 28.2385 145.493 28.3861 145.698 28.5731C145.903 28.7601 146.063 28.9816 146.183 29.2375C146.303 29.4934 146.363 29.769 146.363 30.0643V34.5083V34.5034ZM145.283 29.6164C145.213 29.4786 145.118 29.3556 144.998 29.2473C144.877 29.144 144.747 29.0603 144.597 29.0013C144.447 28.9422 144.292 28.9127 144.137 28.9127C143.982 28.9127 143.827 28.9422 143.677 29.0013C143.527 29.0603 143.392 29.1391 143.277 29.2473C143.162 29.3556 143.067 29.4737 142.992 29.6164C142.922 29.7542 142.887 29.9068 142.887 30.0692V34.5034C142.887 34.6658 142.922 34.8085 142.997 34.9365C143.072 35.0595 143.167 35.1678 143.287 35.2564C143.407 35.3449 143.537 35.4138 143.687 35.4532C143.837 35.4926 143.987 35.5172 144.137 35.5172C144.287 35.5172 144.437 35.4975 144.587 35.4532C144.737 35.4089 144.872 35.3449 144.988 35.2613C145.108 35.1776 145.203 35.0693 145.278 34.9414C145.353 34.8134 145.388 34.6658 145.388 34.5034V30.0692C145.388 29.9068 145.353 29.7542 145.283 29.6164Z" fill="#6D747D"/>
<path d="M152.99 30.0348C152.99 30.143 152.935 30.1972 152.825 30.1972H152.195C152.075 30.1972 152.015 30.143 152.015 30.0348C152.015 29.8871 151.985 29.7444 151.92 29.6066C151.855 29.4688 151.77 29.3507 151.655 29.2473C151.54 29.144 151.41 29.0603 151.26 28.9963C151.11 28.9324 150.95 28.9028 150.775 28.9028C150.6 28.9028 150.449 28.9324 150.299 28.9963C150.149 29.0603 150.014 29.144 149.904 29.2473C149.789 29.3507 149.694 29.4737 149.624 29.6066C149.554 29.7444 149.519 29.8871 149.519 30.0348V34.4099C149.519 34.5969 149.554 34.7593 149.624 34.902C149.694 35.0398 149.789 35.1579 149.909 35.2514C150.029 35.3449 150.164 35.4138 150.314 35.4581C150.464 35.5024 150.62 35.5221 150.775 35.5221C150.93 35.5221 151.085 35.5024 151.235 35.4581C151.385 35.4138 151.52 35.3499 151.64 35.2662C151.76 35.1825 151.855 35.0644 151.925 34.9217C151.995 34.779 152.03 34.6117 152.03 34.4148V33.0368C152.03 32.9138 151.97 32.8498 151.85 32.8498H151.105C150.985 32.8498 150.925 32.7907 150.925 32.6726V32.0722C150.925 31.9541 150.985 31.895 151.105 31.895H152.81C152.93 31.895 152.99 31.9541 152.99 32.0722V34.4099C152.99 34.7544 152.93 35.0546 152.805 35.3105C152.68 35.5664 152.52 35.778 152.315 35.9454C152.11 36.1127 151.875 36.2406 151.61 36.3243C151.345 36.408 151.065 36.4523 150.775 36.4523C150.484 36.4523 150.199 36.408 149.934 36.3194C149.664 36.2308 149.429 36.0979 149.224 35.9207C149.019 35.7436 148.854 35.532 148.734 35.281C148.609 35.03 148.549 34.7396 148.549 34.4099V30.0003C148.549 29.7198 148.609 29.454 148.734 29.208C148.854 28.9619 149.019 28.7454 149.224 28.5583C149.429 28.3762 149.664 28.2335 149.934 28.1253C150.204 28.0219 150.484 27.9678 150.775 27.9678C151.065 27.9678 151.36 28.0219 151.635 28.1302C151.91 28.2385 152.145 28.3861 152.345 28.5731C152.545 28.7601 152.705 28.9767 152.82 29.2277C152.935 29.4786 152.99 29.7444 152.99 30.0298V30.0348Z" fill="#6D747D"/>
<path d="M157.457 36.2653H156.847C156.727 36.2653 156.667 36.2014 156.667 36.0783V32.8499C156.667 32.8499 156.657 32.8007 156.632 32.7465L154.736 28.4551C154.656 28.2681 154.706 28.1746 154.891 28.1746H155.556C155.636 28.1746 155.686 28.2041 155.711 28.2681L157.022 31.275C157.047 31.339 157.097 31.3685 157.177 31.3685C157.247 31.3685 157.302 31.339 157.332 31.275L158.602 28.2681C158.632 28.2041 158.687 28.1746 158.767 28.1746H159.418C159.498 28.1746 159.548 28.2041 159.573 28.2681C159.598 28.332 159.593 28.3911 159.563 28.4551L157.677 32.7465C157.652 32.7908 157.642 32.8302 157.642 32.8499V36.0783C157.642 36.2014 157.582 36.2653 157.462 36.2653H157.457Z" fill="#6D747D"/>
</g>
<defs>
<clipPath id="clip0_1785_1101">
<rect width="159.652" height="36" fill="white" transform="translate(0 0.452148)"/>
</clipPath>
</defs>
</svg>
