<svg width="20px" height="20px" viewBox="0 0 20 20" version="1.1" xmlns="http://www.w3.org/2000/svg" xmlns:xlink="http://www.w3.org/1999/xlink">
    <g id="Symbols" stroke="none" stroke-width="1" fill="none" fill-rule="evenodd">
        <g id="header" transform="translate(-1105.000000, -40.000000)" fill="currentColor" fill-rule="nonzero">
            <path d="M1119.19035,40 C1122.39379,40 1125,42.6062109 1125,45.8096875 L1125,45.8096875 L1125,54.1903516 C1125,57.3937891 1122.39379,60 1119.19031,60 L1119.19031,60 L1110.80969,60 C1107.60621,60 1105,57.3937891 1105,54.1903125 L1105,54.1903125 L1105,45.8096875 C1105,42.6062109 1107.60621,40 1110.80969,40 L1110.80969,40 Z M1119.19031,41.5625 L1110.80969,41.5625 C1108.46777,41.5625 1106.5625,43.4677734 1106.5625,45.8096875 L1106.5625,45.8096875 L1106.5625,54.1903516 C1106.5625,56.5322266 1108.46777,58.4375 1110.80969,58.4375 L1110.80969,58.4375 L1119.19035,58.4375 C1121.53223,58.4375 1123.4375,56.5322266 1123.4375,54.1903125 L1123.4375,54.1903125 L1123.4375,45.8096875 C1123.4375,43.4677734 1121.53223,41.5625 1119.19031,41.5625 L1119.19031,41.5625 Z M1115,44.609375 C1117.97242,44.609375 1120.39062,47.0275781 1120.39062,50 C1120.39062,52.9724219 1117.97242,55.390625 1115,55.390625 C1112.02758,55.390625 1109.60938,52.9724219 1109.60938,50 C1109.60938,47.0275781 1112.02758,44.609375 1115,44.609375 Z M1115,46.171875 C1112.88918,46.171875 1111.17188,47.8891797 1111.17188,50 C1111.17188,52.1108203 1112.88918,53.828125 1115,53.828125 C1117.11082,53.828125 1118.82812,52.1108203 1118.82812,50 C1118.82812,47.8891797 1117.11082,46.171875 1115,46.171875 Z M1120.46875,43.75 C1120.90022,43.75 1121.25,44.0997775 1121.25,44.53125 C1121.25,44.9627225 1120.90022,45.3125 1120.46875,45.3125 C1120.03728,45.3125 1119.6875,44.9627225 1119.6875,44.53125 C1119.6875,44.0997775 1120.03728,43.75 1120.46875,43.75 Z" id="ig"></path>
        </g>
    </g>
</svg>
