<svg width="35px" height="51px" viewBox="0 0 35 51" version="1.1" xmlns="http://www.w3.org/2000/svg" xmlns:xlink="http://www.w3.org/1999/xlink">
    <g id="Desktop" stroke="none" stroke-width="1" fill="none" fill-rule="evenodd">
        <g id="D1---Contacts" transform="translate(-841.000000, -1128.000000)" fill="#000000" fill-rule="nonzero">
            <g id="map" transform="translate(0.000000, 877.000000)">
                <g id="pin" transform="translate(841.000000, 251.000000)">
                    <path d="M17.5,0 C7.850683,0 0,7.626393 0,17.000033 C0,19.813998 0.724232,22.604057 2.101021,25.078752 L16.543005,50.452148 C16.735265,50.790422 17.101637,51 17.5,51 C17.898363,51 18.264735,50.790422 18.456995,50.452148 L32.904311,25.070385 C34.275768,22.604057 35,19.813898 35,16.999934 C35,7.626393 27.149317,0 17.5,0 Z M17.5,26 C12.813161,26 9,22.186839 9,17.5 C9,12.813161 12.813161,9 17.5,9 C22.186839,9 26,12.813161 26,17.5 C26,22.186839 22.186839,26 17.5,26 Z" id="Shape"></path>
                </g>
            </g>
        </g>
    </g>
</svg>
