<svg width="20px" height="17px" viewBox="0 0 20 17" version="1.1" xmlns="http://www.w3.org/2000/svg" xmlns:xlink="http://www.w3.org/1999/xlink">
    <g id="Desktop" stroke="none" stroke-width="1" fill="none" fill-rule="evenodd">
        <g id="D1---Detail---viewport-1" transform="translate(-1262.000000, -586.000000)" fill="currentColor" fill-rule="nonzero">
            <g id="image" transform="translate(702.750000, 155.666667)">
                <g id="left-arrow" transform="translate(519.250000, 428.333333)">
                    <path d="M59.1666667,9.50020314 L42.5420833,9.50020314 L48.9079167,3.43686981 C49.24125,3.11936981 49.2541667,2.59186981 48.9366667,2.25853647 C48.6195833,1.92561981 48.0920833,1.91228647 47.7583333,2.22978647 L40.4883333,9.15478647 C40.17375,9.46978647 40,9.88811981 40,10.3335365 C40,10.7785365 40.17375,11.1972865 40.5029167,11.5260365 L47.75875,18.4368698 C47.92,18.5906198 48.1266667,18.6668698 48.3333333,18.6668698 C48.5533333,18.6668698 48.7733333,18.5802031 48.9370833,18.4081198 C49.2545833,18.0747865 49.2416667,17.5477031 48.9083333,17.2302031 L42.5158333,11.1668698 L59.1666667,11.1668698 C59.6266667,11.1668698 60,10.7935365 60,10.3335365 C60,9.87353647 59.6266667,9.50020314 59.1666667,9.50020314 L59.1666667,9.50020314 Z" id="Path" transform="translate(50.000000, 10.333435) scale(-1, 1) translate(-50.000000, -10.333435) "></path>
                </g>
            </g>
        </g>
    </g>
</svg>
