<svg width="23px" height="23px" viewBox="0 0 23 23" version="1.1" xmlns="http://www.w3.org/2000/svg" xmlns:xlink="http://www.w3.org/1999/xlink">
    <g id="Desktop" stroke="none" stroke-width="1" fill="none" fill-rule="evenodd">
        <g id="D1---Detail---gallery" transform="translate(-1313.000000, -129.000000)" fill="currentColor" fill-rule="nonzero">
            <g id="cancel" transform="translate(1313.000000, 129.000000)">
                <path d="M12.770634,11.5000225 L22.7368372,1.53377432 C23.0877209,1.18289058 23.0877209,0.614001619 22.7368372,0.263162803 C22.3859535,-0.0876760127 21.8170645,-0.0877209344 21.4662257,0.263162803 L11.4999775,10.2294109 L1.53377432,0.263162803 C1.18289058,-0.0877209344 0.614001619,-0.0877209344 0.263162803,0.263162803 C-0.0876760127,0.614046541 -0.0877209344,1.1829355 0.263162803,1.53377432 L10.229366,11.4999775 L0.263162803,21.4662257 C-0.0877209344,21.8171094 -0.0877209344,22.3859984 0.263162803,22.7368372 C0.438582211,22.9122566 0.668536616,22.9999438 0.89849102,22.9999438 C1.12844542,22.9999438 1.35835491,22.9122566 1.53381924,22.7368372 L11.4999775,12.770634 L21.4661808,22.7368372 C21.6416002,22.9122566 21.8715546,22.9999438 22.101509,22.9999438 C22.3314634,22.9999438 22.5613729,22.9122566 22.7368372,22.7368372 C23.0877209,22.3859535 23.0877209,21.8170645 22.7368372,21.4662257 L12.770634,11.5000225 Z" id="Path"></path>
            </g>
        </g>
    </g>
</svg>
